<svg version="1" xmlns="http://www.w3.org/2000/svg" width="1077.333" height="1077.333" viewBox="0 0 808.000000 808.000000"><path d="M157.5 109.1c-2.2.4-5.1 1.1-6.5 1.3-6.2 1.4-17.2 5.2-24.6 8.6-22.7 10.4-37.5 26.6-45.5 49.7-1 2.9-1.5 5.3-1.2 5.3.3 0 .1.6-.5 1.2-.5.7-1.2 2.6-1.5 4.3-.3 1.6-.8 4.1-1.1 5.5-3.4 14.2-3.8 38.5-1.1 61.2.2 1.8.7 5.5 1 8.3.3 2.7 1 7.2 1.5 10 .5 2.7 1.2 6.3 1.5 8 .3 1.6.7 4.1 1 5.5.3 1.4.8 5 1.1 8 .3 3 .8 6.8 1 8.5 1 7.5.5 16.2-1.2 20.5-1.7 4.4-6.8 13.3-8.9 15.7-.5.6-2.1 2.6-3.5 4.4-9.7 13-29.7 32.3-55.2 53.6C6.2 395 0 400.8 0 401.5c0 .7 3 3.7 6.8 6.7 7.9 6.2 8.9 7.1 20.7 17.4 13.2 11.5 23.1 21.1 39 37.8 4 4.1 11.5 15.4 14.1 21.1 2.2 4.7 2.6 7 2.5 13.4-.1 4.2-.4 8.9-.7 10.6-.2 1.6-.6 5.2-.8 8-.5 4.8-1.2 10.2-2.1 15.5-1 5.6-1.7 9.6-2 11.5-.5 4.2-1.7 12.1-2 14.3-1.7 10.8-2.3 35.1-1.1 44.7.4 3.3.8 6.7.8 7.5 0 3.1 3.9 19.6 5.9 25.4 9.3 26.4 27.6 43.4 57.4 53.5 5 1.6 10.5 3.3 12.4 3.6 1.9.3 3.7.8 4.1 1 .4.2 2.5.7 4.6 1 2.1.2 5 .7 6.4 1 1.4.3 4.5.8 7 1 2.5.3 6.8.8 9.5 1.1 2.8.3 10.3.7 16.8.9l11.7.4v-42.6h-3.2c-10.4-.2-25.6-1.6-32.2-2.9-1.1-.2-3.4-.7-5-1-6.9-1.2-19.6-6.1-25.3-9.7-17.2-10.7-25.5-29.3-25.6-57.2 0-9.2.9-26 1.7-30.5.3-1.4.7-4.3 1-6.5.3-2.2 1.3-7.6 2.1-12 1.9-9.2 2-9.9 3-18 .4-3.3.9-7.4 1.1-9 .5-3.4.4-17.4-.1-22-.2-2.4-2-9.7-3.9-16-1-3.3-7-16.2-8.8-18.9-7.8-11.7-23.1-28.2-36.3-39.1-3.3-2.8-6.6-5.5-7.3-6.2-.7-.7-2.6-2-4.2-3-3.6-2.1-3.8-3.8-.8-5.4 1.3-.7 2.8-1.7 3.4-2.3.6-.6 3.1-2.6 5.5-4.5 7.8-6.1 26.2-25.4 33.2-34.6 6.2-8.4 11.1-16.8 13.7-24 .6-1.7 1.1-3.1 1.1-3.2 0-.2.6-2.1 1.4-4.3.8-2.2 1.7-5.7 2-7.8.3-2.1.8-4.9 1-6.2 1.1-5 .5-23.1-.9-29.9-.3-1.3-.8-4.9-1.2-8-.3-3.1-1-6.6-1.5-7.7-.4-1.2-1.1-4.1-1.4-6.5-.4-2.4-.8-4.6-1.1-5-.2-.3-.6-2.6-.9-5-.3-2.4-.9-6.2-1.2-8.4-.3-2.2-.6-11.9-.7-21.5 0-15 .3-18.7 2.3-25.9 5.7-21.2 16.7-33.1 37.3-40.2 4.6-1.5 9.9-3.1 11.8-3.4 1.9-.3 4.9-.8 6.5-1.2 4.8-.9 8.2-1.3 21-1.9 6.6-.4 12.1-.7 12.2-.8.3-.2.5-21.2.4-32.4l-.1-6.2-24.7.1c-13.7.1-26.6.5-28.8 1zM590.4 127.5V147l7.6.1c9.1 0 15.3.6 24.2 2 3.7.6 7 1.1 7.3 1.1 1.3-.1 13.7 3.8 18.5 5.8 19.7 8.4 30.1 23.4 33.7 48.8 1.2 8.6.4 33.9-1.2 42.3-.6 2.7-1.2 6.4-2 11.1-.3 1.8-1.2 5.8-2 8.8-4 16-5.1 39.5-2.4 51.5.7 3.3 1.3 6.3 1.3 6.7.1.3.4 1 .9 1.4.4.4.7 1.5.7 2.5s1.4 4.9 3.1 8.6c8.3 18.1 27.5 40.4 50.2 58.2 3.7 2.9 6.7 5.6 6.7 6 0 .4-1 1.3-2.2 1.8-6.2 2.9-27.6 22.2-37.1 33.4-10.8 12.8-18 24.8-21.5 35.9-3.8 12.1-4.8 32.4-2.3 46.6.6 3.2 1.3 7.2 1.6 8.9.2 1.6.7 4.1 1 5.5 3.6 18.1 4.9 30.3 4.9 48.5.1 19.2-.9 25.6-5.6 36.9-5.6 13.8-14.2 22.1-28.9 27.9-12.3 4.9-24.3 7.4-40.8 8.3-5.3.3-9.8.7-10 .9-.1.2-1.3 0-2.6-.5-1.6-.6-2.5-.5-2.8.3-.2.7-.3 10.4-.3 21.7l.1 20.5 9.5-.1c12-.1 28-1.4 36-2.9 1.9-.4 4.4-.8 5.5-.9 1.1-.1 2.9-.5 4-.9 1.1-.3 3.1-.8 4.5-1.1 4-.7 20.4-6 21-6.7.3-.3 2.1-1.1 4-1.8 4.1-1.3 18.3-10.3 23.1-14.6 3.9-3.5 11.7-12.8 13.8-16.5 4.2-7.1 6.1-11.3 8.4-18.1 3.5-10.1 4.3-13.8 6.4-29.4 1.3-9.1.6-39.1-1.1-49-.3-1.7-.7-5-1-7.5-.3-2.5-.8-5.9-1.1-7.5-.3-1.7-.7-4.4-1-6-.3-1.7-.7-4.1-1-5.4-.2-1.3-.7-4.9-1-8-.3-3.1-.7-6.7-1-8-.2-1.3-.7-6.7-1-12-.5-7.6-.3-10.7 1-14.6 1.8-5.2 8.7-16.4 14-22.5 7.9-9.2 33.5-33.8 48-46.1 2.2-1.9 4.5-3.9 5.1-4.4.6-.6 4.6-3.7 8.8-6.9l7.6-5.9-2.3-2.1c-1.3-1.2-4-3.5-6.1-5.1-5-3.9-10.6-8.6-12.6-10.5-.8-.8-2.8-2.5-4.3-3.7-4.5-3.5-20.3-18.1-28.4-26.2-16.1-16.2-27.5-31.7-30.2-41.1-1.6-5.7.2-28.8 3.5-44.3.7-3.7 1.3-7.1 1.2-7.5-.1-.4.1-2.1.5-3.7 2.7-12 4.1-46.8 2.4-60.5-6.3-49.9-29.2-75.1-79-87.1-6.6-1.6-11.8-1.9-32.6-1.9h-24.7v19.5zM266.3 184.3c-.8 1.3-.8 55.6 0 56.4.3.3 8.2.5 17.6.5 18.9 0 25.5 1 34.1 5.5 9.2 4.7 14.9 11.4 25.6 29.8 6.3 10.8 14.7 29.4 19.3 42.8 3.1 9.2 3.6 11.6 2.8 13.7-.6 1.4-2.2 5-3.5 8-5.2 11.9-6.5 15.1-6.2 15.9.1.2-.2.7-.7 1-.5.3-1.7 2.6-2.7 5.1-1 2.5-2.5 5.9-3.2 7.6-.7 1.7-4.3 10-7.9 18.5-3.7 8.5-7.4 17.2-8.4 19.4-1.8 3.8-12.8 29.4-15.7 36.2-2.9 6.8-4.3 10-6.9 15.8-1.5 3.3-3.5 8-4.5 10.5s-2.9 6.7-4.1 9.5c-1.3 2.7-2.4 5.2-2.4 5.5-.1.3-1 2.5-2.1 5-1 2.5-1.8 4.8-1.6 5.2.1.5-.2.8-.8.8-.5 0-1 .5-1 1 0 .6-.9 2.9-1.9 5.3-2.6 5.6-24 55.3-25.1 58.1-.4 1.1-1.9 4.6-3.3 7.6s-4.4 10-6.7 15.5-5.3 12.5-6.7 15.5c-5 11.1-5.6 12.5-5.4 12.8.1.1-.6 1.6-1.4 3.2-.9 1.7-1.4 3.1-1.3 3.2.2 0 14.8.2 32.6.3l32.3.2 2.4-5.4c1.4-2.9 2.5-5.6 2.5-5.9 0-.3 1.3-3.3 2.9-6.7 1.6-3.4 4.1-9.1 5.6-12.7 2.8-6.5 3.6-8.3 9.5-21.5 1.7-3.9 3.1-7.1 3.1-7.2 0-.3 3.1-7.8 5.6-13.3.9-1.9 1.7-3.7 1.7-4 .1-.3.9-2.1 1.8-4s4.2-9.6 7.3-17c3.2-7.4 6.9-15.8 8.1-18.7 1.3-2.8 2.4-5.4 2.4-5.7 0-.2 1.3-3.3 2.9-6.8 6.9-15.3 7.9-17.7 7.3-18.2-.3-.3 0-.6.6-.6.7 0 1.2-.6 1.2-1.3 0-.8.6-2.7 1.4-4.3.8-1.6 3.5-7.9 6.1-13.9 2.6-6.1 5.3-12.4 6-14 .7-1.7 2.5-5.7 3.9-8.9 1.5-3.3 2.8-5.7 3-5.5.4.4 3.3 10.6 4.2 14.6.2 1.2.8 3.3 1.3 4.5.5 1.3.9 2.7 1 3.3.2 1.5 6.8 22.7 10.9 35 2 6 3.7 11.4 3.8 12 .3 1.7 11.4 31.6 14.1 38 2.7 6.2 8.2 17.4 11.6 23.5 1.1 1.9 2.5 4.4 3.1 5.5 6.8 12.3 26.1 35.2 36.4 43.2 7.4 5.7 23.4 12.9 31.1 13.9 1.9.2 3.9.8 4.5 1.2.6.3 14.3.7 30.4.8l29.2.1V562h-2.2c-39.5-.4-42-.7-52.6-6.6-5.8-3.2-8.2-5.5-13.6-12.4-7.7-10-15.7-23.9-22.4-39-3.2-7.2-10.8-30.5-17.6-53.5-1.9-6.6-4.2-14.3-5-17-.9-2.8-1.5-5.1-1.5-5.3 0-.3-1.9-7.2-4.2-15.2-1.9-6.5-7.8-28.1-8.4-31-.2-.8-2.2-7.8-4.4-15.5-2.3-7.7-4.3-14.7-4.5-15.6-.3-.9-1.5-4.9-2.7-9-1.3-4.1-2.3-7.6-2.4-7.9-.1-.4-2.4-8.1-4.2-14-.2-.8-.4-1.6-.4-1.7 0-.4-4.9-14.7-5.8-16.8-.5-1.1-2.1-5.8-3.6-10.5s-3.4-10.1-4.2-12c-.8-1.9-1.9-4.4-2.3-5.5-3-7.2-10.9-22.9-14.8-29.3-4.5-7.5-13-20.2-14.1-21.2-.3-.3-3.3-3.8-6.6-7.9-9.2-11.4-22.5-21.5-33.1-25.2-2.1-.8-4.1-1.7-4.4-2-.3-.3-1.8-.9-3.5-1.3-1.6-.3-4-.8-5.2-1.1-1.3-.3-3.5-.8-5-1.1-5.1-1.1-58.3-1.2-59-.1z"/></svg>